<mxfile host="app.diagrams.net" agent="Mozilla/5.0 (Windows NT 10.0; Win64; x64) AppleWebKit/537.36 (KHTML, like Gecko) Chrome/128.0.0.0 Safari/537.36 OPR/114.0.0.0" version="24.7.17">
  <diagram id="C5RBs43oDa-KdzZeNtuy" name="Page-1">
    <mxGraphModel dx="1466" dy="803" grid="1" gridSize="10" guides="1" tooltips="1" connect="1" arrows="1" fold="1" page="1" pageScale="1" pageWidth="1169" pageHeight="1654" math="0" shadow="0">
      <root>
        <mxCell id="WIyWlLk6GJQsqaUBKTNV-0" />
        <mxCell id="WIyWlLk6GJQsqaUBKTNV-1" parent="WIyWlLk6GJQsqaUBKTNV-0" />
        <mxCell id="zkfFHV4jXpPFQw0GAbJ--0" value="BondiJet" style="swimlane;fontStyle=1;align=center;verticalAlign=top;childLayout=stackLayout;horizontal=1;startSize=26;horizontalStack=0;resizeParent=1;resizeLast=0;collapsible=1;marginBottom=0;rounded=0;shadow=0;strokeWidth=1;" parent="WIyWlLk6GJQsqaUBKTNV-1" vertex="1">
          <mxGeometry x="408" y="33" width="480" height="328" as="geometry">
            <mxRectangle x="230" y="140" width="160" height="26" as="alternateBounds" />
          </mxGeometry>
        </mxCell>
        <mxCell id="h99EVZ2xonWIezWJAi27-55" value="-NombreDeLaAerolinea" style="text;align=left;verticalAlign=top;spacingLeft=4;spacingRight=4;overflow=hidden;rotatable=0;points=[[0,0.5],[1,0.5]];portConstraint=eastwest;rounded=0;shadow=0;html=0;" vertex="1" parent="zkfFHV4jXpPFQw0GAbJ--0">
          <mxGeometry y="26" width="480" height="26" as="geometry" />
        </mxCell>
        <mxCell id="h99EVZ2xonWIezWJAi27-56" value="-Cuit" style="text;align=left;verticalAlign=top;spacingLeft=4;spacingRight=4;overflow=hidden;rotatable=0;points=[[0,0.5],[1,0.5]];portConstraint=eastwest;rounded=0;shadow=0;html=0;" vertex="1" parent="zkfFHV4jXpPFQw0GAbJ--0">
          <mxGeometry y="52" width="480" height="26" as="geometry" />
        </mxCell>
        <mxCell id="zkfFHV4jXpPFQw0GAbJ--3" value="-ListaDeVuelos: Vuelo" style="text;align=left;verticalAlign=top;spacingLeft=4;spacingRight=4;overflow=hidden;rotatable=0;points=[[0,0.5],[1,0.5]];portConstraint=eastwest;rounded=0;shadow=0;html=0;" parent="zkfFHV4jXpPFQw0GAbJ--0" vertex="1">
          <mxGeometry y="78" width="480" height="26" as="geometry" />
        </mxCell>
        <mxCell id="h99EVZ2xonWIezWJAi27-4" value="-ListaDeAeropuertos: Aeropuerto" style="text;align=left;verticalAlign=top;spacingLeft=4;spacingRight=4;overflow=hidden;rotatable=0;points=[[0,0.5],[1,0.5]];portConstraint=eastwest;rounded=0;shadow=0;html=0;" vertex="1" parent="zkfFHV4jXpPFQw0GAbJ--0">
          <mxGeometry y="104" width="480" height="26" as="geometry" />
        </mxCell>
        <mxCell id="h99EVZ2xonWIezWJAi27-5" value="-ListaDeClientes: Cliente" style="text;align=left;verticalAlign=top;spacingLeft=4;spacingRight=4;overflow=hidden;rotatable=0;points=[[0,0.5],[1,0.5]];portConstraint=eastwest;rounded=0;shadow=0;html=0;" vertex="1" parent="zkfFHV4jXpPFQw0GAbJ--0">
          <mxGeometry y="130" width="480" height="26" as="geometry" />
        </mxCell>
        <mxCell id="zkfFHV4jXpPFQw0GAbJ--4" value="" style="line;html=1;strokeWidth=1;align=left;verticalAlign=middle;spacingTop=-1;spacingLeft=3;spacingRight=3;rotatable=0;labelPosition=right;points=[];portConstraint=eastwest;" parent="zkfFHV4jXpPFQw0GAbJ--0" vertex="1">
          <mxGeometry y="156" width="480" height="12" as="geometry" />
        </mxCell>
        <mxCell id="zkfFHV4jXpPFQw0GAbJ--5" value="-EstablecerNombreYCuit(nombre, cuit)" style="text;align=left;verticalAlign=top;spacingLeft=4;spacingRight=4;overflow=hidden;rotatable=0;points=[[0,0.5],[1,0.5]];portConstraint=eastwest;" parent="zkfFHV4jXpPFQw0GAbJ--0" vertex="1">
          <mxGeometry y="168" width="480" height="26" as="geometry" />
        </mxCell>
        <mxCell id="h99EVZ2xonWIezWJAi27-59" value="-RegistrarCliente(nombre, telefono, dni)" style="text;align=left;verticalAlign=top;spacingLeft=4;spacingRight=4;overflow=hidden;rotatable=0;points=[[0,0.5],[1,0.5]];portConstraint=eastwest;" vertex="1" parent="zkfFHV4jXpPFQw0GAbJ--0">
          <mxGeometry y="194" width="480" height="26" as="geometry" />
        </mxCell>
        <mxCell id="h99EVZ2xonWIezWJAi27-60" value="-RegistrarAeropuerto(nombre,ubicacion)" style="text;align=left;verticalAlign=top;spacingLeft=4;spacingRight=4;overflow=hidden;rotatable=0;points=[[0,0.5],[1,0.5]];portConstraint=eastwest;" vertex="1" parent="zkfFHV4jXpPFQw0GAbJ--0">
          <mxGeometry y="220" width="480" height="26" as="geometry" />
        </mxCell>
        <mxCell id="h99EVZ2xonWIezWJAi27-75" value="-CrearVueloPublicoInternacionalConEscalas()" style="text;align=left;verticalAlign=top;spacingLeft=4;spacingRight=4;overflow=hidden;rotatable=0;points=[[0,0.5],[1,0.5]];portConstraint=eastwest;" vertex="1" parent="zkfFHV4jXpPFQw0GAbJ--0">
          <mxGeometry y="246" width="480" height="26" as="geometry" />
        </mxCell>
        <mxCell id="h99EVZ2xonWIezWJAi27-84" value="-CrearVueloPublicoInternacionalSinEscalas()" style="text;align=left;verticalAlign=top;spacingLeft=4;spacingRight=4;overflow=hidden;rotatable=0;points=[[0,0.5],[1,0.5]];portConstraint=eastwest;" vertex="1" parent="zkfFHV4jXpPFQw0GAbJ--0">
          <mxGeometry y="272" width="480" height="26" as="geometry" />
        </mxCell>
        <mxCell id="h99EVZ2xonWIezWJAi27-76" value="-CrearVueloPrivado(cliente, ListaDeClientes)" style="text;align=left;verticalAlign=top;spacingLeft=4;spacingRight=4;overflow=hidden;rotatable=0;points=[[0,0.5],[1,0.5]];portConstraint=eastwest;" vertex="1" parent="zkfFHV4jXpPFQw0GAbJ--0">
          <mxGeometry y="298" width="480" height="26" as="geometry" />
        </mxCell>
        <mxCell id="h99EVZ2xonWIezWJAi27-0" value="&lt;b&gt;Vuelo&lt;/b&gt;" style="swimlane;fontStyle=0;childLayout=stackLayout;horizontal=1;startSize=26;fillColor=none;horizontalStack=0;resizeParent=1;resizeParentMax=0;resizeLast=0;collapsible=1;marginBottom=0;whiteSpace=wrap;html=1;" vertex="1" parent="WIyWlLk6GJQsqaUBKTNV-1">
          <mxGeometry x="58" y="892" width="290" height="520" as="geometry" />
        </mxCell>
        <mxCell id="h99EVZ2xonWIezWJAi27-2" value="-CodigoDeVuelo" style="text;strokeColor=none;fillColor=none;align=left;verticalAlign=top;spacingLeft=4;spacingRight=4;overflow=hidden;rotatable=0;points=[[0,0.5],[1,0.5]];portConstraint=eastwest;whiteSpace=wrap;html=1;" vertex="1" parent="h99EVZ2xonWIezWJAi27-0">
          <mxGeometry y="26" width="290" height="26" as="geometry" />
        </mxCell>
        <mxCell id="h99EVZ2xonWIezWJAi27-33" value="-AeropuertoDeSalida" style="text;strokeColor=none;fillColor=none;align=left;verticalAlign=top;spacingLeft=4;spacingRight=4;overflow=hidden;rotatable=0;points=[[0,0.5],[1,0.5]];portConstraint=eastwest;whiteSpace=wrap;html=1;" vertex="1" parent="h99EVZ2xonWIezWJAi27-0">
          <mxGeometry y="52" width="290" height="26" as="geometry" />
        </mxCell>
        <mxCell id="h99EVZ2xonWIezWJAi27-34" value="-FechaDeSalida" style="text;strokeColor=none;fillColor=none;align=left;verticalAlign=top;spacingLeft=4;spacingRight=4;overflow=hidden;rotatable=0;points=[[0,0.5],[1,0.5]];portConstraint=eastwest;whiteSpace=wrap;html=1;" vertex="1" parent="h99EVZ2xonWIezWJAi27-0">
          <mxGeometry y="78" width="290" height="26" as="geometry" />
        </mxCell>
        <mxCell id="h99EVZ2xonWIezWJAi27-35" value="-HoraDeSalida" style="text;strokeColor=none;fillColor=none;align=left;verticalAlign=top;spacingLeft=4;spacingRight=4;overflow=hidden;rotatable=0;points=[[0,0.5],[1,0.5]];portConstraint=eastwest;whiteSpace=wrap;html=1;" vertex="1" parent="h99EVZ2xonWIezWJAi27-0">
          <mxGeometry y="104" width="290" height="26" as="geometry" />
        </mxCell>
        <mxCell id="h99EVZ2xonWIezWJAi27-36" value="-AeropuertoDeLlegada" style="text;strokeColor=none;fillColor=none;align=left;verticalAlign=top;spacingLeft=4;spacingRight=4;overflow=hidden;rotatable=0;points=[[0,0.5],[1,0.5]];portConstraint=eastwest;whiteSpace=wrap;html=1;" vertex="1" parent="h99EVZ2xonWIezWJAi27-0">
          <mxGeometry y="130" width="290" height="26" as="geometry" />
        </mxCell>
        <mxCell id="h99EVZ2xonWIezWJAi27-37" value="-HoraDeLlegada" style="text;strokeColor=none;fillColor=none;align=left;verticalAlign=top;spacingLeft=4;spacingRight=4;overflow=hidden;rotatable=0;points=[[0,0.5],[1,0.5]];portConstraint=eastwest;whiteSpace=wrap;html=1;" vertex="1" parent="h99EVZ2xonWIezWJAi27-0">
          <mxGeometry y="156" width="290" height="26" as="geometry" />
        </mxCell>
        <mxCell id="h99EVZ2xonWIezWJAi27-38" value="-PrecioDelPasaje" style="text;strokeColor=none;fillColor=none;align=left;verticalAlign=top;spacingLeft=4;spacingRight=4;overflow=hidden;rotatable=0;points=[[0,0.5],[1,0.5]];portConstraint=eastwest;whiteSpace=wrap;html=1;" vertex="1" parent="h99EVZ2xonWIezWJAi27-0">
          <mxGeometry y="182" width="290" height="26" as="geometry" />
        </mxCell>
        <mxCell id="h99EVZ2xonWIezWJAi27-39" value="-CantidadDePasajeros" style="text;strokeColor=none;fillColor=none;align=left;verticalAlign=top;spacingLeft=4;spacingRight=4;overflow=hidden;rotatable=0;points=[[0,0.5],[1,0.5]];portConstraint=eastwest;whiteSpace=wrap;html=1;" vertex="1" parent="h99EVZ2xonWIezWJAi27-0">
          <mxGeometry y="208" width="290" height="26" as="geometry" />
        </mxCell>
        <mxCell id="h99EVZ2xonWIezWJAi27-40" value="-CantidadMaximaDePasajeros" style="text;strokeColor=none;fillColor=none;align=left;verticalAlign=top;spacingLeft=4;spacingRight=4;overflow=hidden;rotatable=0;points=[[0,0.5],[1,0.5]];portConstraint=eastwest;whiteSpace=wrap;html=1;" vertex="1" parent="h99EVZ2xonWIezWJAi27-0">
          <mxGeometry y="234" width="290" height="26" as="geometry" />
        </mxCell>
        <mxCell id="h99EVZ2xonWIezWJAi27-41" value="-CantidadDeRefrigerios" style="text;strokeColor=none;fillColor=none;align=left;verticalAlign=top;spacingLeft=4;spacingRight=4;overflow=hidden;rotatable=0;points=[[0,0.5],[1,0.5]];portConstraint=eastwest;whiteSpace=wrap;html=1;" vertex="1" parent="h99EVZ2xonWIezWJAi27-0">
          <mxGeometry y="260" width="290" height="26" as="geometry" />
        </mxCell>
        <mxCell id="h99EVZ2xonWIezWJAi27-42" value="-CantidadDeSecciones" style="text;strokeColor=none;fillColor=none;align=left;verticalAlign=top;spacingLeft=4;spacingRight=4;overflow=hidden;rotatable=0;points=[[0,0.5],[1,0.5]];portConstraint=eastwest;whiteSpace=wrap;html=1;" vertex="1" parent="h99EVZ2xonWIezWJAi27-0">
          <mxGeometry y="286" width="290" height="26" as="geometry" />
        </mxCell>
        <mxCell id="h99EVZ2xonWIezWJAi27-44" value="-ListaDePasajeros" style="text;strokeColor=none;fillColor=none;align=left;verticalAlign=top;spacingLeft=4;spacingRight=4;overflow=hidden;rotatable=0;points=[[0,0.5],[1,0.5]];portConstraint=eastwest;whiteSpace=wrap;html=1;" vertex="1" parent="h99EVZ2xonWIezWJAi27-0">
          <mxGeometry y="312" width="290" height="26" as="geometry" />
        </mxCell>
        <mxCell id="h99EVZ2xonWIezWJAi27-45" value="-ListaDeAsientos" style="text;strokeColor=none;fillColor=none;align=left;verticalAlign=top;spacingLeft=4;spacingRight=4;overflow=hidden;rotatable=0;points=[[0,0.5],[1,0.5]];portConstraint=eastwest;whiteSpace=wrap;html=1;" vertex="1" parent="h99EVZ2xonWIezWJAi27-0">
          <mxGeometry y="338" width="290" height="26" as="geometry" />
        </mxCell>
        <mxCell id="h99EVZ2xonWIezWJAi27-29" value="" style="line;html=1;strokeWidth=1;align=left;verticalAlign=middle;spacingTop=-1;spacingLeft=3;spacingRight=3;rotatable=0;labelPosition=right;points=[];portConstraint=eastwest;" vertex="1" parent="h99EVZ2xonWIezWJAi27-0">
          <mxGeometry y="364" width="290" height="26" as="geometry" />
        </mxCell>
        <mxCell id="h99EVZ2xonWIezWJAi27-92" value="+ConsultarAsientosDisponibles(codigo)" style="text;strokeColor=none;fillColor=none;align=left;verticalAlign=top;spacingLeft=4;spacingRight=4;overflow=hidden;rotatable=0;points=[[0,0.5],[1,0.5]];portConstraint=eastwest;whiteSpace=wrap;html=1;" vertex="1" parent="h99EVZ2xonWIezWJAi27-0">
          <mxGeometry y="390" width="290" height="26" as="geometry" />
        </mxCell>
        <mxCell id="h99EVZ2xonWIezWJAi27-95" value="+ConsultarCodigo()" style="text;strokeColor=none;fillColor=none;align=left;verticalAlign=top;spacingLeft=4;spacingRight=4;overflow=hidden;rotatable=0;points=[[0,0.5],[1,0.5]];portConstraint=eastwest;whiteSpace=wrap;html=1;" vertex="1" parent="h99EVZ2xonWIezWJAi27-0">
          <mxGeometry y="416" width="290" height="26" as="geometry" />
        </mxCell>
        <mxCell id="h99EVZ2xonWIezWJAi27-96" value="+ConsultarAsientosDisponibles(codigo)" style="text;strokeColor=none;fillColor=none;align=left;verticalAlign=top;spacingLeft=4;spacingRight=4;overflow=hidden;rotatable=0;points=[[0,0.5],[1,0.5]];portConstraint=eastwest;whiteSpace=wrap;html=1;" vertex="1" parent="h99EVZ2xonWIezWJAi27-0">
          <mxGeometry y="442" width="290" height="26" as="geometry" />
        </mxCell>
        <mxCell id="h99EVZ2xonWIezWJAi27-101" value="-VenderVuelo()" style="text;align=left;verticalAlign=top;spacingLeft=4;spacingRight=4;overflow=hidden;rotatable=0;points=[[0,0.5],[1,0.5]];portConstraint=eastwest;" vertex="1" parent="h99EVZ2xonWIezWJAi27-0">
          <mxGeometry y="468" width="290" height="26" as="geometry" />
        </mxCell>
        <mxCell id="h99EVZ2xonWIezWJAi27-103" value="+VerificarQueElPasajeroEsteRegistrado()" style="text;align=left;verticalAlign=top;spacingLeft=4;spacingRight=4;overflow=hidden;rotatable=0;points=[[0,0.5],[1,0.5]];portConstraint=eastwest;" vertex="1" parent="h99EVZ2xonWIezWJAi27-0">
          <mxGeometry y="494" width="290" height="26" as="geometry" />
        </mxCell>
        <mxCell id="h99EVZ2xonWIezWJAi27-8" value="&lt;b&gt;Aeropuerto&lt;/b&gt;&lt;span style=&quot;color: rgba(0, 0, 0, 0); font-family: monospace; font-size: 0px; text-align: start; text-wrap: nowrap;&quot;&gt;%3CmxGraphModel%3E%3Croot%3E%3CmxCell%20id%3D%220%22%2F%3E%3CmxCell%20id%3D%221%22%20parent%3D%220%22%2F%3E%3CmxCell%20id%3D%222%22%20value%3D%22%26lt%3Bb%26gt%3BVuelos%26lt%3B%2Fb%26gt%3B%22%20style%3D%22swimlane%3BfontStyle%3D0%3BchildLayout%3DstackLayout%3Bhorizontal%3D1%3BstartSize%3D26%3BfillColor%3Dnone%3BhorizontalStack%3D0%3BresizeParent%3D1%3BresizeParentMax%3D0%3BresizeLast%3D0%3Bcollapsible%3D1%3BmarginBottom%3D0%3BwhiteSpace%3Dwrap%3Bhtml%3D1%3B%22%20vertex%3D%221%22%20parent%3D%221%22%3E%3CmxGeometry%20x%3D%2240%22%20y%3D%22240%22%20width%3D%22140%22%20height%3D%22104%22%20as%3D%22geometry%22%2F%3E%3C%2FmxCell%3E%3CmxCell%20id%3D%223%22%20value%3D%22%2B%20field%3A%20type%22%20style%3D%22text%3BstrokeColor%3Dnone%3BfillColor%3Dnone%3Balign%3Dleft%3BverticalAlign%3Dtop%3BspacingLeft%3D4%3BspacingRight%3D4%3Boverflow%3Dhidden%3Brotatable%3D0%3Bpoints%3D%5B%5B0%2C0.5%5D%2C%5B1%2C0.5%5D%5D%3BportConstraint%3Deastwest%3BwhiteSpace%3Dwrap%3Bhtml%3D1%3B%22%20vertex%3D%221%22%20parent%3D%222%22%3E%3CmxGeometry%20y%3D%2226%22%20width%3D%22140%22%20height%3D%2226%22%20as%3D%22geometry%22%2F%3E%3C%2FmxCell%3E%3CmxCell%20id%3D%224%22%20value%3D%22%2B%20field%3A%20type%22%20style%3D%22text%3BstrokeColor%3Dnone%3BfillColor%3Dnone%3Balign%3Dleft%3BverticalAlign%3Dtop%3BspacingLeft%3D4%3BspacingRight%3D4%3Boverflow%3Dhidden%3Brotatable%3D0%3Bpoints%3D%5B%5B0%2C0.5%5D%2C%5B1%2C0.5%5D%5D%3BportConstraint%3Deastwest%3BwhiteSpace%3Dwrap%3Bhtml%3D1%3B%22%20vertex%3D%221%22%20parent%3D%222%22%3E%3CmxGeometry%20y%3D%2252%22%20width%3D%22140%22%20height%3D%2226%22%20as%3D%22geometry%22%2F%3E%3C%2FmxCell%3E%3CmxCell%20id%3D%225%22%20value%3D%22%2B%20field%3A%20type%22%20style%3D%22text%3BstrokeColor%3Dnone%3BfillColor%3Dnone%3Balign%3Dleft%3BverticalAlign%3Dtop%3BspacingLeft%3D4%3BspacingRight%3D4%3Boverflow%3Dhidden%3Brotatable%3D0%3Bpoints%3D%5B%5B0%2C0.5%5D%2C%5B1%2C0.5%5D%5D%3BportConstraint%3Deastwest%3BwhiteSpace%3Dwrap%3Bhtml%3D1%3B%22%20vertex%3D%221%22%20parent%3D%222%22%3E%3CmxGeometry%20y%3D%2278%22%20width%3D%22140%22%20height%3D%2226%22%20as%3D%22geometry%22%2F%3E%3C%2FmxCell%3E%3C%2Froot%3E%3C%2FmxGraphModel&lt;/span&gt;" style="swimlane;fontStyle=0;childLayout=stackLayout;horizontal=1;startSize=26;fillColor=none;horizontalStack=0;resizeParent=1;resizeParentMax=0;resizeLast=0;collapsible=1;marginBottom=0;whiteSpace=wrap;html=1;" vertex="1" parent="WIyWlLk6GJQsqaUBKTNV-1">
          <mxGeometry x="920" y="462" width="240" height="152" as="geometry" />
        </mxCell>
        <mxCell id="h99EVZ2xonWIezWJAi27-9" value="-Nombre" style="text;strokeColor=none;fillColor=none;align=left;verticalAlign=top;spacingLeft=4;spacingRight=4;overflow=hidden;rotatable=0;points=[[0,0.5],[1,0.5]];portConstraint=eastwest;whiteSpace=wrap;html=1;" vertex="1" parent="h99EVZ2xonWIezWJAi27-8">
          <mxGeometry y="26" width="240" height="26" as="geometry" />
        </mxCell>
        <mxCell id="h99EVZ2xonWIezWJAi27-10" value="-UbicacionGeografica" style="text;strokeColor=none;fillColor=none;align=left;verticalAlign=top;spacingLeft=4;spacingRight=4;overflow=hidden;rotatable=0;points=[[0,0.5],[1,0.5]];portConstraint=eastwest;whiteSpace=wrap;html=1;" vertex="1" parent="h99EVZ2xonWIezWJAi27-8">
          <mxGeometry y="52" width="240" height="26" as="geometry" />
        </mxCell>
        <mxCell id="h99EVZ2xonWIezWJAi27-27" value="" style="line;html=1;strokeWidth=1;align=left;verticalAlign=middle;spacingTop=-1;spacingLeft=3;spacingRight=3;rotatable=0;labelPosition=right;points=[];portConstraint=eastwest;" vertex="1" parent="h99EVZ2xonWIezWJAi27-8">
          <mxGeometry y="78" width="240" height="22" as="geometry" />
        </mxCell>
        <mxCell id="h99EVZ2xonWIezWJAi27-106" value="+ConsultarNombre()" style="text;align=left;verticalAlign=top;spacingLeft=4;spacingRight=4;overflow=hidden;rotatable=0;points=[[0,0.5],[1,0.5]];portConstraint=eastwest;" vertex="1" parent="h99EVZ2xonWIezWJAi27-8">
          <mxGeometry y="100" width="240" height="26" as="geometry" />
        </mxCell>
        <mxCell id="h99EVZ2xonWIezWJAi27-107" value="+ConsultarUbicacion()" style="text;align=left;verticalAlign=top;spacingLeft=4;spacingRight=4;overflow=hidden;rotatable=0;points=[[0,0.5],[1,0.5]];portConstraint=eastwest;" vertex="1" parent="h99EVZ2xonWIezWJAi27-8">
          <mxGeometry y="126" width="240" height="26" as="geometry" />
        </mxCell>
        <mxCell id="h99EVZ2xonWIezWJAi27-12" value="&lt;b&gt;Cliente&lt;/b&gt;" style="swimlane;fontStyle=0;childLayout=stackLayout;horizontal=1;startSize=26;fillColor=none;horizontalStack=0;resizeParent=1;resizeParentMax=0;resizeLast=0;collapsible=1;marginBottom=0;whiteSpace=wrap;html=1;" vertex="1" parent="WIyWlLk6GJQsqaUBKTNV-1">
          <mxGeometry x="408" y="462" width="230" height="146" as="geometry" />
        </mxCell>
        <mxCell id="h99EVZ2xonWIezWJAi27-13" value="-Nombre" style="text;strokeColor=none;fillColor=none;align=left;verticalAlign=top;spacingLeft=4;spacingRight=4;overflow=hidden;rotatable=0;points=[[0,0.5],[1,0.5]];portConstraint=eastwest;whiteSpace=wrap;html=1;" vertex="1" parent="h99EVZ2xonWIezWJAi27-12">
          <mxGeometry y="26" width="230" height="26" as="geometry" />
        </mxCell>
        <mxCell id="h99EVZ2xonWIezWJAi27-14" value="-Dni" style="text;strokeColor=none;fillColor=none;align=left;verticalAlign=top;spacingLeft=4;spacingRight=4;overflow=hidden;rotatable=0;points=[[0,0.5],[1,0.5]];portConstraint=eastwest;whiteSpace=wrap;html=1;" vertex="1" parent="h99EVZ2xonWIezWJAi27-12">
          <mxGeometry y="52" width="230" height="26" as="geometry" />
        </mxCell>
        <mxCell id="h99EVZ2xonWIezWJAi27-15" value="-NumeroTelefonico" style="text;strokeColor=none;fillColor=none;align=left;verticalAlign=top;spacingLeft=4;spacingRight=4;overflow=hidden;rotatable=0;points=[[0,0.5],[1,0.5]];portConstraint=eastwest;whiteSpace=wrap;html=1;" vertex="1" parent="h99EVZ2xonWIezWJAi27-12">
          <mxGeometry y="78" width="230" height="26" as="geometry" />
        </mxCell>
        <mxCell id="h99EVZ2xonWIezWJAi27-28" value="" style="line;html=1;strokeWidth=1;align=left;verticalAlign=middle;spacingTop=-1;spacingLeft=3;spacingRight=3;rotatable=0;labelPosition=right;points=[];portConstraint=eastwest;" vertex="1" parent="h99EVZ2xonWIezWJAi27-12">
          <mxGeometry y="104" width="230" height="16" as="geometry" />
        </mxCell>
        <mxCell id="h99EVZ2xonWIezWJAi27-91" value="+ConsultarDni()" style="text;strokeColor=none;fillColor=none;align=left;verticalAlign=top;spacingLeft=4;spacingRight=4;overflow=hidden;rotatable=0;points=[[0,0.5],[1,0.5]];portConstraint=eastwest;whiteSpace=wrap;html=1;" vertex="1" parent="h99EVZ2xonWIezWJAi27-12">
          <mxGeometry y="120" width="230" height="26" as="geometry" />
        </mxCell>
        <mxCell id="h99EVZ2xonWIezWJAi27-16" value="&lt;b&gt;Pasajero&lt;/b&gt;" style="swimlane;fontStyle=0;childLayout=stackLayout;horizontal=1;startSize=26;fillColor=none;horizontalStack=0;resizeParent=1;resizeParentMax=0;resizeLast=0;collapsible=1;marginBottom=0;whiteSpace=wrap;html=1;" vertex="1" parent="WIyWlLk6GJQsqaUBKTNV-1">
          <mxGeometry x="447" y="702" width="163" height="78" as="geometry" />
        </mxCell>
        <mxCell id="h99EVZ2xonWIezWJAi27-17" value="-Asiento" style="text;strokeColor=none;fillColor=none;align=left;verticalAlign=top;spacingLeft=4;spacingRight=4;overflow=hidden;rotatable=0;points=[[0,0.5],[1,0.5]];portConstraint=eastwest;whiteSpace=wrap;html=1;" vertex="1" parent="h99EVZ2xonWIezWJAi27-16">
          <mxGeometry y="26" width="163" height="26" as="geometry" />
        </mxCell>
        <mxCell id="h99EVZ2xonWIezWJAi27-30" value="" style="line;html=1;strokeWidth=1;align=left;verticalAlign=middle;spacingTop=-1;spacingLeft=3;spacingRight=3;rotatable=0;labelPosition=right;points=[];portConstraint=eastwest;" vertex="1" parent="h99EVZ2xonWIezWJAi27-16">
          <mxGeometry y="52" width="163" height="26" as="geometry" />
        </mxCell>
        <mxCell id="h99EVZ2xonWIezWJAi27-20" value="&lt;b&gt;Asiento&lt;/b&gt;" style="swimlane;fontStyle=0;childLayout=stackLayout;horizontal=1;startSize=26;fillColor=none;horizontalStack=0;resizeParent=1;resizeParentMax=0;resizeLast=0;collapsible=1;marginBottom=0;whiteSpace=wrap;html=1;" vertex="1" parent="WIyWlLk6GJQsqaUBKTNV-1">
          <mxGeometry x="658" y="462" width="230" height="260" as="geometry" />
        </mxCell>
        <mxCell id="h99EVZ2xonWIezWJAi27-21" value="-NumeroDeAsiento" style="text;strokeColor=none;fillColor=none;align=left;verticalAlign=top;spacingLeft=4;spacingRight=4;overflow=hidden;rotatable=0;points=[[0,0.5],[1,0.5]];portConstraint=eastwest;whiteSpace=wrap;html=1;" vertex="1" parent="h99EVZ2xonWIezWJAi27-20">
          <mxGeometry y="26" width="230" height="26" as="geometry" />
        </mxCell>
        <mxCell id="h99EVZ2xonWIezWJAi27-22" value="-Seccion" style="text;strokeColor=none;fillColor=none;align=left;verticalAlign=top;spacingLeft=4;spacingRight=4;overflow=hidden;rotatable=0;points=[[0,0.5],[1,0.5]];portConstraint=eastwest;whiteSpace=wrap;html=1;" vertex="1" parent="h99EVZ2xonWIezWJAi27-20">
          <mxGeometry y="52" width="230" height="26" as="geometry" />
        </mxCell>
        <mxCell id="h99EVZ2xonWIezWJAi27-23" value="-DniDelPasajero" style="text;strokeColor=none;fillColor=none;align=left;verticalAlign=top;spacingLeft=4;spacingRight=4;overflow=hidden;rotatable=0;points=[[0,0.5],[1,0.5]];portConstraint=eastwest;whiteSpace=wrap;html=1;" vertex="1" parent="h99EVZ2xonWIezWJAi27-20">
          <mxGeometry y="78" width="230" height="26" as="geometry" />
        </mxCell>
        <mxCell id="h99EVZ2xonWIezWJAi27-25" value="-AsientoVendido" style="text;strokeColor=none;fillColor=none;align=left;verticalAlign=top;spacingLeft=4;spacingRight=4;overflow=hidden;rotatable=0;points=[[0,0.5],[1,0.5]];portConstraint=eastwest;whiteSpace=wrap;html=1;" vertex="1" parent="h99EVZ2xonWIezWJAi27-20">
          <mxGeometry y="104" width="230" height="26" as="geometry" />
        </mxCell>
        <mxCell id="h99EVZ2xonWIezWJAi27-26" value="" style="line;html=1;strokeWidth=1;align=left;verticalAlign=middle;spacingTop=-1;spacingLeft=3;spacingRight=3;rotatable=0;labelPosition=right;points=[];portConstraint=eastwest;" vertex="1" parent="h99EVZ2xonWIezWJAi27-20">
          <mxGeometry y="130" width="230" height="26" as="geometry" />
        </mxCell>
        <mxCell id="h99EVZ2xonWIezWJAi27-87" value="+ConsultarNumeroDeAsiento()&lt;span style=&quot;color: rgba(0, 0, 0, 0); font-family: monospace; font-size: 0px; text-wrap: nowrap;&quot;&gt;%3CmxGraphModel%3E%3Croot%3E%3CmxCell%20id%3D%220%22%2F%3E%3CmxCell%20id%3D%221%22%20parent%3D%220%22%2F%3E%3CmxCell%20id%3D%222%22%20value%3D%22-AsientoVendido%22%20style%3D%22text%3BstrokeColor%3Dnone%3BfillColor%3Dnone%3Balign%3Dleft%3BverticalAlign%3Dtop%3BspacingLeft%3D4%3BspacingRight%3D4%3Boverflow%3Dhidden%3Brotatable%3D0%3Bpoints%3D%5B%5B0%2C0.5%5D%2C%5B1%2C0.5%5D%5D%3BportConstraint%3Deastwest%3BwhiteSpace%3Dwrap%3Bhtml%3D1%3B%22%20vertex%3D%221%22%20parent%3D%221%22%3E%3CmxGeometry%20x%3D%22610%22%20y%3D%22474%22%20width%3D%22230%22%20height%3D%2226%22%20as%3D%22geometry%22%2F%3E%3C%2FmxCell%3E%3C%2Froot%3E%3C%2FmxGraphModel%3E&lt;/span&gt;" style="text;strokeColor=none;fillColor=none;align=left;verticalAlign=top;spacingLeft=4;spacingRight=4;overflow=hidden;rotatable=0;points=[[0,0.5],[1,0.5]];portConstraint=eastwest;whiteSpace=wrap;html=1;" vertex="1" parent="h99EVZ2xonWIezWJAi27-20">
          <mxGeometry y="156" width="230" height="26" as="geometry" />
        </mxCell>
        <mxCell id="h99EVZ2xonWIezWJAi27-88" value="+ConsultarSeccionDeAsiento()" style="text;strokeColor=none;fillColor=none;align=left;verticalAlign=top;spacingLeft=4;spacingRight=4;overflow=hidden;rotatable=0;points=[[0,0.5],[1,0.5]];portConstraint=eastwest;whiteSpace=wrap;html=1;" vertex="1" parent="h99EVZ2xonWIezWJAi27-20">
          <mxGeometry y="182" width="230" height="26" as="geometry" />
        </mxCell>
        <mxCell id="h99EVZ2xonWIezWJAi27-90" value="+ConsultarSiEstaVendido()" style="text;strokeColor=none;fillColor=none;align=left;verticalAlign=top;spacingLeft=4;spacingRight=4;overflow=hidden;rotatable=0;points=[[0,0.5],[1,0.5]];portConstraint=eastwest;whiteSpace=wrap;html=1;" vertex="1" parent="h99EVZ2xonWIezWJAi27-20">
          <mxGeometry y="208" width="230" height="26" as="geometry" />
        </mxCell>
        <mxCell id="h99EVZ2xonWIezWJAi27-89" value="+ConsultarPasajeroPropietario()" style="text;strokeColor=none;fillColor=none;align=left;verticalAlign=top;spacingLeft=4;spacingRight=4;overflow=hidden;rotatable=0;points=[[0,0.5],[1,0.5]];portConstraint=eastwest;whiteSpace=wrap;html=1;" vertex="1" parent="h99EVZ2xonWIezWJAi27-20">
          <mxGeometry y="234" width="230" height="26" as="geometry" />
        </mxCell>
        <mxCell id="h99EVZ2xonWIezWJAi27-24" value="Extends" style="endArrow=block;endSize=16;endFill=0;html=1;rounded=0;exitX=0.463;exitY=0.009;exitDx=0;exitDy=0;entryX=0.5;entryY=1;entryDx=0;entryDy=0;exitPerimeter=0;" edge="1" parent="WIyWlLk6GJQsqaUBKTNV-1" source="h99EVZ2xonWIezWJAi27-16">
          <mxGeometry width="160" relative="1" as="geometry">
            <mxPoint x="527" y="702" as="sourcePoint" />
            <mxPoint x="523" y="618" as="targetPoint" />
          </mxGeometry>
        </mxCell>
        <mxCell id="h99EVZ2xonWIezWJAi27-46" value="" style="endArrow=block;startArrow=block;endFill=1;startFill=1;html=1;rounded=0;exitX=1;exitY=0.5;exitDx=0;exitDy=0;entryX=0;entryY=0.5;entryDx=0;entryDy=0;" edge="1" parent="WIyWlLk6GJQsqaUBKTNV-1" target="h99EVZ2xonWIezWJAi27-14">
          <mxGeometry width="160" relative="1" as="geometry">
            <mxPoint x="348" y="957" as="sourcePoint" />
            <mxPoint x="558" y="412" as="targetPoint" />
            <Array as="points">
              <mxPoint x="368" y="957" />
              <mxPoint x="368" y="527" />
            </Array>
          </mxGeometry>
        </mxCell>
        <mxCell id="h99EVZ2xonWIezWJAi27-47" value="" style="endArrow=block;startArrow=block;endFill=1;startFill=1;html=1;rounded=0;exitX=1;exitY=0.5;exitDx=0;exitDy=0;entryX=0;entryY=0.5;entryDx=0;entryDy=0;" edge="1" parent="WIyWlLk6GJQsqaUBKTNV-1" source="h99EVZ2xonWIezWJAi27-14" target="h99EVZ2xonWIezWJAi27-22">
          <mxGeometry width="160" relative="1" as="geometry">
            <mxPoint x="628" y="526.5799999999999" as="sourcePoint" />
            <mxPoint x="678" y="526.5799999999999" as="targetPoint" />
          </mxGeometry>
        </mxCell>
        <mxCell id="h99EVZ2xonWIezWJAi27-48" value="" style="endArrow=block;startArrow=block;endFill=1;startFill=1;html=1;rounded=0;entryX=0;entryY=0.5;entryDx=0;entryDy=0;exitX=1;exitY=0.5;exitDx=0;exitDy=0;" edge="1" parent="WIyWlLk6GJQsqaUBKTNV-1" source="h99EVZ2xonWIezWJAi27-22" target="h99EVZ2xonWIezWJAi27-10">
          <mxGeometry width="160" relative="1" as="geometry">
            <mxPoint x="890" y="532" as="sourcePoint" />
            <mxPoint x="904" y="526.5799999999999" as="targetPoint" />
          </mxGeometry>
        </mxCell>
        <mxCell id="h99EVZ2xonWIezWJAi27-49" value="" style="endArrow=block;startArrow=block;endFill=1;startFill=1;html=1;rounded=0;entryX=0;entryY=0.5;entryDx=0;entryDy=0;exitX=0.589;exitY=0;exitDx=0;exitDy=0;exitPerimeter=0;" edge="1" parent="WIyWlLk6GJQsqaUBKTNV-1" source="h99EVZ2xonWIezWJAi27-0" target="h99EVZ2xonWIezWJAi27-5">
          <mxGeometry width="160" relative="1" as="geometry">
            <mxPoint x="224" y="790" as="sourcePoint" />
            <mxPoint x="528" y="184" as="targetPoint" />
            <Array as="points">
              <mxPoint x="229" y="176" />
            </Array>
          </mxGeometry>
        </mxCell>
        <mxCell id="h99EVZ2xonWIezWJAi27-52" value="" style="endArrow=block;startArrow=block;endFill=1;startFill=1;html=1;rounded=0;entryX=0.25;entryY=1;entryDx=0;entryDy=0;" edge="1" parent="WIyWlLk6GJQsqaUBKTNV-1" target="zkfFHV4jXpPFQw0GAbJ--0">
          <mxGeometry width="160" relative="1" as="geometry">
            <mxPoint x="528" y="370" as="sourcePoint" />
            <mxPoint x="468" y="260" as="targetPoint" />
          </mxGeometry>
        </mxCell>
        <mxCell id="h99EVZ2xonWIezWJAi27-53" value="" style="endArrow=block;startArrow=block;endFill=1;startFill=1;html=1;rounded=0;exitX=0.4;exitY=0.006;exitDx=0;exitDy=0;exitPerimeter=0;entryX=0.75;entryY=1;entryDx=0;entryDy=0;" edge="1" parent="WIyWlLk6GJQsqaUBKTNV-1" target="zkfFHV4jXpPFQw0GAbJ--0">
          <mxGeometry width="160" relative="1" as="geometry">
            <mxPoint x="770" y="370.9359999999999" as="sourcePoint" />
            <mxPoint x="758" y="320" as="targetPoint" />
          </mxGeometry>
        </mxCell>
        <mxCell id="h99EVZ2xonWIezWJAi27-54" value="" style="endArrow=block;startArrow=block;endFill=1;startFill=1;html=1;rounded=0;entryX=1;entryY=0.5;entryDx=0;entryDy=0;exitX=0.5;exitY=0;exitDx=0;exitDy=0;" edge="1" parent="WIyWlLk6GJQsqaUBKTNV-1" source="h99EVZ2xonWIezWJAi27-8" target="h99EVZ2xonWIezWJAi27-5">
          <mxGeometry width="160" relative="1" as="geometry">
            <mxPoint x="1068" y="370" as="sourcePoint" />
            <mxPoint x="752" y="183" as="targetPoint" />
            <Array as="points">
              <mxPoint x="960" y="176" />
            </Array>
          </mxGeometry>
        </mxCell>
        <mxCell id="h99EVZ2xonWIezWJAi27-61" value="Extends" style="endArrow=block;endSize=16;endFill=0;html=1;rounded=0;entryX=0;entryY=0.25;entryDx=0;entryDy=0;" edge="1" parent="WIyWlLk6GJQsqaUBKTNV-1" target="h99EVZ2xonWIezWJAi27-62">
          <mxGeometry width="160" relative="1" as="geometry">
            <mxPoint x="348" y="1009" as="sourcePoint" />
            <mxPoint x="618" y="872" as="targetPoint" />
            <Array as="points">
              <mxPoint x="448" y="1009" />
              <mxPoint x="448" y="880" />
            </Array>
          </mxGeometry>
        </mxCell>
        <mxCell id="h99EVZ2xonWIezWJAi27-62" value="&lt;b&gt;VueloNacional&lt;/b&gt;" style="swimlane;fontStyle=0;childLayout=stackLayout;horizontal=1;startSize=26;fillColor=none;horizontalStack=0;resizeParent=1;resizeParentMax=0;resizeLast=0;collapsible=1;marginBottom=0;whiteSpace=wrap;html=1;" vertex="1" parent="WIyWlLk6GJQsqaUBKTNV-1">
          <mxGeometry x="648" y="848" width="480" height="130" as="geometry" />
        </mxCell>
        <mxCell id="h99EVZ2xonWIezWJAi27-64" value="" style="line;html=1;strokeWidth=1;align=left;verticalAlign=middle;spacingTop=-1;spacingLeft=3;spacingRight=3;rotatable=0;labelPosition=right;points=[];portConstraint=eastwest;" vertex="1" parent="h99EVZ2xonWIezWJAi27-62">
          <mxGeometry y="26" width="480" height="26" as="geometry" />
        </mxCell>
        <mxCell id="h99EVZ2xonWIezWJAi27-74" value="-CrearVueloPublicoNacional()" style="text;align=left;verticalAlign=top;spacingLeft=4;spacingRight=4;overflow=hidden;rotatable=0;points=[[0,0.5],[1,0.5]];portConstraint=eastwest;" vertex="1" parent="h99EVZ2xonWIezWJAi27-62">
          <mxGeometry y="52" width="480" height="26" as="geometry" />
        </mxCell>
        <mxCell id="h99EVZ2xonWIezWJAi27-83" value="-ValidarDestino()" style="text;align=left;verticalAlign=top;spacingLeft=4;spacingRight=4;overflow=hidden;rotatable=0;points=[[0,0.5],[1,0.5]];portConstraint=eastwest;" vertex="1" parent="h99EVZ2xonWIezWJAi27-62">
          <mxGeometry y="78" width="480" height="26" as="geometry" />
        </mxCell>
        <mxCell id="h99EVZ2xonWIezWJAi27-98" value="-VenderVuelo(DniPasajero, CodigoDeVuelo, NumeroDeAsiento)" style="text;align=left;verticalAlign=top;spacingLeft=4;spacingRight=4;overflow=hidden;rotatable=0;points=[[0,0.5],[1,0.5]];portConstraint=eastwest;" vertex="1" parent="h99EVZ2xonWIezWJAi27-62">
          <mxGeometry y="104" width="480" height="26" as="geometry" />
        </mxCell>
        <mxCell id="h99EVZ2xonWIezWJAi27-65" value="&lt;b&gt;VueloInternacional&lt;/b&gt;" style="swimlane;fontStyle=0;childLayout=stackLayout;horizontal=1;startSize=26;fillColor=none;horizontalStack=0;resizeParent=1;resizeParentMax=0;resizeLast=0;collapsible=1;marginBottom=0;whiteSpace=wrap;html=1;" vertex="1" parent="WIyWlLk6GJQsqaUBKTNV-1">
          <mxGeometry x="648" y="1132" width="480" height="130" as="geometry" />
        </mxCell>
        <mxCell id="h99EVZ2xonWIezWJAi27-3" value="-TieneEscalas" style="text;strokeColor=none;fillColor=none;align=left;verticalAlign=top;spacingLeft=4;spacingRight=4;overflow=hidden;rotatable=0;points=[[0,0.5],[1,0.5]];portConstraint=eastwest;whiteSpace=wrap;html=1;" vertex="1" parent="h99EVZ2xonWIezWJAi27-65">
          <mxGeometry y="26" width="480" height="26" as="geometry" />
        </mxCell>
        <mxCell id="h99EVZ2xonWIezWJAi27-82" value="-ListaDeAeropuertosDeDestino" style="text;strokeColor=none;fillColor=none;align=left;verticalAlign=top;spacingLeft=4;spacingRight=4;overflow=hidden;rotatable=0;points=[[0,0.5],[1,0.5]];portConstraint=eastwest;whiteSpace=wrap;html=1;" vertex="1" parent="h99EVZ2xonWIezWJAi27-65">
          <mxGeometry y="52" width="480" height="26" as="geometry" />
        </mxCell>
        <mxCell id="h99EVZ2xonWIezWJAi27-67" value="" style="line;html=1;strokeWidth=1;align=left;verticalAlign=middle;spacingTop=-1;spacingLeft=3;spacingRight=3;rotatable=0;labelPosition=right;points=[];portConstraint=eastwest;" vertex="1" parent="h99EVZ2xonWIezWJAi27-65">
          <mxGeometry y="78" width="480" height="26" as="geometry" />
        </mxCell>
        <mxCell id="h99EVZ2xonWIezWJAi27-99" value="-VenderVuelo(DniPasajero, CodigoDeVuelo, NumeroDeAsiento, SeccionDelAsiento)" style="text;align=left;verticalAlign=top;spacingLeft=4;spacingRight=4;overflow=hidden;rotatable=0;points=[[0,0.5],[1,0.5]];portConstraint=eastwest;" vertex="1" parent="h99EVZ2xonWIezWJAi27-65">
          <mxGeometry y="104" width="480" height="26" as="geometry" />
        </mxCell>
        <mxCell id="h99EVZ2xonWIezWJAi27-68" value="&lt;b&gt;VueloPrivado&lt;/b&gt;" style="swimlane;fontStyle=0;childLayout=stackLayout;horizontal=1;startSize=26;fillColor=none;horizontalStack=0;resizeParent=1;resizeParentMax=0;resizeLast=0;collapsible=1;marginBottom=0;whiteSpace=wrap;html=1;" vertex="1" parent="WIyWlLk6GJQsqaUBKTNV-1">
          <mxGeometry x="648" y="1436" width="480" height="130" as="geometry" />
        </mxCell>
        <mxCell id="h99EVZ2xonWIezWJAi27-81" value="-CantidadDeJetsNecesarios" style="text;strokeColor=none;fillColor=none;align=left;verticalAlign=top;spacingLeft=4;spacingRight=4;overflow=hidden;rotatable=0;points=[[0,0.5],[1,0.5]];portConstraint=eastwest;whiteSpace=wrap;html=1;" vertex="1" parent="h99EVZ2xonWIezWJAi27-68">
          <mxGeometry y="26" width="480" height="26" as="geometry" />
        </mxCell>
        <mxCell id="h99EVZ2xonWIezWJAi27-70" value="" style="line;html=1;strokeWidth=1;align=left;verticalAlign=middle;spacingTop=-1;spacingLeft=3;spacingRight=3;rotatable=0;labelPosition=right;points=[];portConstraint=eastwest;" vertex="1" parent="h99EVZ2xonWIezWJAi27-68">
          <mxGeometry y="52" width="480" height="26" as="geometry" />
        </mxCell>
        <mxCell id="h99EVZ2xonWIezWJAi27-100" value="+VenderVuelo(PasajeroComprador, ListaDePasajeros)" style="text;align=left;verticalAlign=top;spacingLeft=4;spacingRight=4;overflow=hidden;rotatable=0;points=[[0,0.5],[1,0.5]];portConstraint=eastwest;" vertex="1" parent="h99EVZ2xonWIezWJAi27-68">
          <mxGeometry y="78" width="480" height="26" as="geometry" />
        </mxCell>
        <mxCell id="h99EVZ2xonWIezWJAi27-104" value="+ControlarCapacidad()" style="text;align=left;verticalAlign=top;spacingLeft=4;spacingRight=4;overflow=hidden;rotatable=0;points=[[0,0.5],[1,0.5]];portConstraint=eastwest;" vertex="1" parent="h99EVZ2xonWIezWJAi27-68">
          <mxGeometry y="104" width="480" height="26" as="geometry" />
        </mxCell>
        <mxCell id="h99EVZ2xonWIezWJAi27-71" value="Extends" style="endArrow=block;endSize=16;endFill=0;html=1;rounded=0;entryX=0.005;entryY=0.054;entryDx=0;entryDy=0;entryPerimeter=0;exitX=1;exitY=0.5;exitDx=0;exitDy=0;" edge="1" parent="WIyWlLk6GJQsqaUBKTNV-1" target="h99EVZ2xonWIezWJAi27-65">
          <mxGeometry width="160" relative="1" as="geometry">
            <mxPoint x="348" y="1138.9999999999998" as="sourcePoint" />
            <mxPoint x="638" y="1112" as="targetPoint" />
            <Array as="points">
              <mxPoint x="448" y="1139" />
            </Array>
          </mxGeometry>
        </mxCell>
        <mxCell id="h99EVZ2xonWIezWJAi27-72" value="Extends" style="endArrow=block;endSize=16;endFill=0;html=1;rounded=0;exitX=1;exitY=0.5;exitDx=0;exitDy=0;entryX=0;entryY=0.25;entryDx=0;entryDy=0;" edge="1" parent="WIyWlLk6GJQsqaUBKTNV-1" target="h99EVZ2xonWIezWJAi27-68">
          <mxGeometry width="160" relative="1" as="geometry">
            <mxPoint x="348" y="1242.9999999999998" as="sourcePoint" />
            <mxPoint x="563" y="1360" as="targetPoint" />
            <Array as="points">
              <mxPoint x="448" y="1243" />
              <mxPoint x="448" y="1468" />
            </Array>
          </mxGeometry>
        </mxCell>
      </root>
    </mxGraphModel>
  </diagram>
</mxfile>
